<svg width="94" height="81" viewBox="0 0 94 81" fill="none" xmlns="http://www.w3.org/2000/svg">
<g opacity="0.4" clip-path="url(#clip0_146_31898)">
<path d="M82 1.65625H12C6.20101 1.65625 1.5 6.39923 1.5 12.25V68.75C1.5 74.6008 6.20101 79.3438 12 79.3438H82C87.799 79.3438 92.5 74.6008 92.5 68.75V12.25C92.5 6.39923 87.799 1.65625 82 1.65625Z" stroke="#979797" stroke-width="3" stroke-linejoin="round"/>
<g clip-path="url(#clip1_146_31898)">
<path d="M82 1.65625H12C6.20101 1.65625 1.5 6.39923 1.5 12.25V68.75C1.5 74.6008 6.20101 79.3438 12 79.3438H82C87.799 79.3438 92.5 74.6008 92.5 68.75V12.25C92.5 6.39923 87.799 1.65625 82 1.65625Z" stroke="#979797" stroke-width="3" stroke-linejoin="round"/>
<path d="M65.0352 28.3281C64.6632 33.4913 60.833 37.4688 56.6563 37.4688C52.4795 37.4688 48.643 33.4926 48.2774 28.3281C47.8965 22.9567 51.6251 19.1875 56.6563 19.1875C61.6874 19.1875 65.416 23.0545 65.0352 28.3281Z" stroke="#979797" stroke-width="3" stroke-linecap="round" stroke-linejoin="round"/>
<path d="M56.6562 45.5938C48.3827 45.5938 40.4265 49.7032 38.4334 57.7063C38.1693 58.7651 38.8333 59.8125 39.9213 59.8125H73.3925C74.4805 59.8125 75.1406 58.7651 74.8804 57.7063C72.8872 49.575 64.931 45.5938 56.6562 45.5938Z" stroke="#979797" stroke-width="3" stroke-miterlimit="10"/>
<path d="M39.3907 30.6057C39.0936 34.7291 35.9985 37.9766 32.6622 37.9766C29.3258 37.9766 26.2256 34.7304 25.9336 30.6057C25.6302 26.3159 28.6428 23.25 32.6622 23.25C36.6815 23.25 39.6941 26.3946 39.3907 30.6057Z" stroke="#979797" stroke-width="3" stroke-linecap="round" stroke-linejoin="round"/>
<path d="M40.1524 45.8477C37.8609 44.7978 35.337 44.394 32.6621 44.394C26.0606 44.394 19.7002 47.6758 18.107 54.0679C17.8975 54.9134 18.4281 55.75 19.2965 55.75H33.5508" stroke="#979797" stroke-width="3" stroke-miterlimit="10" stroke-linecap="round"/>
</g>
</g>
<defs>
<clipPath id="clip0_146_31898">
<rect width="94" height="81" fill="white"/>
</clipPath>
<clipPath id="clip1_146_31898">
<rect width="94" height="81" fill="white"/>
</clipPath>
</defs>
</svg>
